<?xml version="1.0" encoding="utf-8"?>
<!-- Generator: Adobe Illustrator 26.0.2, SVG Export Plug-In . SVG Version: 6.00 Build 0)  -->
<svg version="1.1" id="Layer_1" xmlns="http://www.w3.org/2000/svg" xmlns:xlink="http://www.w3.org/1999/xlink" x="0px" y="0px"
	 viewBox="0 0 376.3 301.14" style="enable-background:new 0 0 376.3 301.14;" xml:space="preserve">
<style type="text/css">
	.st0{fill:#00A18E;}
	.st1{fill:none;stroke:#FFFFFF;stroke-width:4.0599;stroke-miterlimit:10;}
	.st2{fill:#FFFFFF;}
</style>
<polygon class="st0" points="3.51,0 60.25,150.56 0,301.14 376.3,301.14 376.3,0 "/>
<polygon class="st1" points="25.9,15.78 75.41,150.64 25.01,285.52 361.6,285.52 361.6,15.78 "/>
<g>
	<path class="st2" d="M246.89,188.42c19.66-4.55,35.59-15.58,57.62-22.96c-15-0.9-21.42,0.31-54.57-10.54
		c27.34-5.64,49.75,0.48,70.12,4.19c-6.05,6-11.47,13.97-21.83,21.59C282.75,191.87,261.83,190.61,246.89,188.42"/>
	<path class="st2" d="M201.53,189.62c20.47-4.82,35.37-12.38,53.04-17.87c-13.5-3.75-22.81-2.27-49.84-14.09
		c29.29-4.32,46.5,9.16,70.97,10.35c-6.63,4.64-15.6,9.79-26.4,15.44C233.37,191.48,216.59,191.44,201.53,189.62"/>
	<path class="st2" d="M153.89,181.93c17.97-0.77,40.93-8.07,57.1-8.4c-18.43-5.61-30.71-16.22-41.33-22.22
		c7.88,0.16,19.3,3.24,28.59,7.85c9.29,4.59,16.94,10.64,27.21,14.94c-11.31,4.5-21.05,9.75-32.5,11.48
		C181.5,187.3,166.51,186.12,153.89,181.93"/>
	<path class="st2" d="M128.4,165.61c16.83,2.88,27.68,4.29,40.84,2.05c-14.32-7.53-22.03-16.33-31.92-22.35
		c10.11,1.54,19.61,5.96,26.92,10.38c7.2,4.6,7.5,7.17,24.04,15.53c-10.43,1.02-21.32,5.48-31.53,4.78
		C146.48,175.2,138.56,172.14,128.4,165.61"/>
	<path class="st2" d="M152.97,162.68c-15.04-13.03-32.46-13.73-52.17-10.11C116.07,157.81,138.92,162.75,152.97,162.68"/>
	<path class="st2" d="M308.52,183.51c20.65-4.53,37.71-18.64,54.59-25.61l-0.19-2.55c-7.25-4.02-14.99-10.27-26.08-13.83
		c-18.69-5.92-33.17,1.97-50.57,8.45c20.81-0.62,42.3,0.58,64.36,5.36C336.79,160.9,326.42,160.85,308.52,183.51z"/>
</g>
<g>
	<path class="st2" d="M99.95,45.04h5.81l9.46,14.7l9.46-14.7h5.81v31.08h-5.46V53.83l-9.81,14.65h-0.18l-9.72-14.57v22.2h-5.37
		V45.04z"/>
	<path class="st2" d="M156.67,44.81h5.06l13.68,31.3h-5.78l-3.15-7.51h-14.7l-3.19,7.51h-5.6L156.67,44.81z M164.49,63.77
		l-5.38-12.43l-5.32,12.43H164.49z"/>
	<path class="st2" d="M184.87,60.66v-0.09c0-8.7,6.66-16.07,16.03-16.07c5.41,0,8.74,1.51,11.94,4.22l-3.47,4.13
		c-2.4-2.05-4.75-3.33-8.7-3.33c-5.73,0-10.07,5.02-10.07,10.97v0.08c0,6.4,4.21,11.1,10.56,11.1c2.93,0,5.6-0.93,7.51-2.36V63.5
		h-7.95v-4.75h13.23v13.06c-3.07,2.62-7.46,4.84-12.96,4.84C191.26,76.65,184.87,69.72,184.87,60.66z"/>
	<path class="st2" d="M228.82,45.04h5.06l16.64,21.48V45.04h5.38v31.08h-4.57L234.19,54v22.11h-5.37V45.04z"/>
	<path class="st2" d="M271.57,45.04h23.04v4.89h-17.59V58h15.59v4.89h-15.59v8.35h17.81v4.88h-23.26V45.04z"/>
	<path class="st2" d="M316.52,50.1h-9.86v-5.06h25.22v5.06h-9.85v26.01h-5.51V50.1z"/>
</g>
<g>
	<path class="st2" d="M100.81,91.54h8.73c2.46,0,4.39,0.73,5.65,1.96c1.03,1.06,1.62,2.52,1.62,4.22v0.05
		c0,3.22-1.93,5.15-4.67,5.94l5.29,7.42h-4.06l-4.81-6.83h-0.06h-4.26v6.83h-3.44V91.54z M109.29,101.26c2.47,0,4.03-1.3,4.03-3.28
		v-0.05c0-2.1-1.51-3.24-4.06-3.24h-5.01v6.58H109.29z"/>
	<path class="st2" d="M125.46,91.54h14.53v3.08h-11.09v5.09h9.82v3.08h-9.82v5.26h11.22v3.08h-14.67V91.54z"/>
	<path class="st2" d="M147.77,101.39v-0.05c0-5.57,4.17-10.13,10.1-10.13c3.61,0,5.79,1.26,7.67,3.05l-2.21,2.55
		c-1.57-1.46-3.24-2.44-5.49-2.44c-3.75,0-6.46,3.08-6.46,6.92v0.05c0,3.84,2.72,6.97,6.46,6.97c2.41,0,3.95-0.97,5.63-2.55
		l2.21,2.24c-2.05,2.13-4.29,3.47-7.95,3.47C152.02,111.47,147.77,107.03,147.77,101.39z"/>
	<path class="st2" d="M172.29,101.39v-0.05c0-5.51,4.26-10.13,10.27-10.13c6.02,0,10.21,4.56,10.21,10.07v0.05
		c0,5.52-4.26,10.13-10.27,10.13C176.48,111.47,172.29,106.91,172.29,101.39z M189.16,101.39v-0.05c0-3.81-2.77-6.97-6.66-6.97
		c-3.89,0-6.61,3.11-6.61,6.92v0.05c0,3.81,2.77,6.97,6.67,6.97C186.45,108.31,189.16,105.2,189.16,101.39z"/>
	<path class="st2" d="M200.5,101.39v-0.05c0-5.48,4.2-10.13,10.1-10.13c3.41,0,5.51,0.95,7.53,2.65l-2.18,2.61
		c-1.51-1.29-3-2.1-5.49-2.1c-3.61,0-6.35,3.16-6.35,6.92v0.05c0,4.03,2.66,7,6.66,7c1.85,0,3.53-0.59,4.73-1.48v-3.67h-5.01v-2.99
		h8.34v8.23c-1.93,1.65-4.71,3.05-8.17,3.05C204.53,111.47,200.5,107.11,200.5,101.39z"/>
	<path class="st2" d="M227.72,91.54h3.19l10.5,13.55V91.54h3.39v19.59h-2.89L231.11,97.2v13.94h-3.39V91.54z"/>
	<path class="st2" d="M254.45,91.54h3.44v19.59h-3.44V91.54z"/>
	<path class="st2" d="M266.85,108.59l11.56-13.99h-11.19v-3.05h15.67v2.55l-11.56,13.99h11.56v3.05h-16.04V108.59z"/>
	<path class="st2" d="M291.61,91.54h14.53v3.08h-11.08v5.09h9.82v3.08h-9.82v5.26h11.22v3.08h-14.67V91.54z"/>
	<path class="st2" d="M314.79,91.54h7.31c6.16,0,10.41,4.23,10.41,9.74v0.05c0,5.52-4.26,9.8-10.41,9.8h-7.31V91.54z M322.1,108
		c4.11,0,6.8-2.77,6.8-6.61v-0.05c0-3.84-2.69-6.66-6.8-6.66h-3.87V108H322.1z"/>
</g>
<g>
	<g>
		<path class="st2" d="M106.88,216.44h2.57l6.93,15.87h-2.92l-1.6-3.81h-7.45l-1.62,3.81h-2.84L106.88,216.44z M110.84,226.05
			l-2.72-6.3l-2.7,6.3H110.84z"/>
		<path class="st2" d="M119.44,216.55h2.95l4.79,7.45l4.79-7.45h2.95v15.76h-2.77v-11.3l-4.98,7.42h-0.09l-4.93-7.38v11.26h-2.73
			V216.55z"/>
		<path class="st2" d="M139.62,216.55h11.69v2.48h-8.92v4.1h7.91v2.48h-7.91v4.24h9.03v2.47h-11.8V216.55z"/>
		<path class="st2" d="M155.3,216.55h7.02c1.98,0,3.53,0.59,4.55,1.58c0.84,0.86,1.31,2.02,1.31,3.4v0.04
			c0,2.59-1.55,4.14-3.76,4.78l4.26,5.96h-3.27l-3.87-5.49h-0.04h-3.42v5.49h-2.77V216.55z M162.12,224.36
			c1.98,0,3.24-1.03,3.24-2.63v-0.05c0-1.69-1.22-2.61-3.27-2.61h-4.03v5.29H162.12z"/>
		<path class="st2" d="M172.19,216.55h2.77v15.76h-2.77V216.55z"/>
		<path class="st2" d="M178.91,224.48v-0.05c0-4.48,3.35-8.15,8.13-8.15c2.9,0,4.66,1.01,6.17,2.45l-1.78,2.05
			c-1.26-1.17-2.61-1.96-4.42-1.96c-3.02,0-5.2,2.47-5.2,5.56v0.04c0,3.09,2.19,5.61,5.2,5.61c1.94,0,3.18-0.79,4.53-2.05l1.78,1.8
			c-1.64,1.71-3.45,2.79-6.39,2.79C182.33,232.58,178.91,229,178.91,224.48z"/>
		<path class="st2" d="M202.26,216.44h2.57l6.93,15.87h-2.92l-1.6-3.81h-7.45l-1.62,3.81h-2.84L202.26,216.44z M206.23,226.05
			l-2.72-6.3l-2.7,6.3H206.23z"/>
		<path class="st2" d="M214.83,216.55h2.56l8.44,10.9v-10.9h2.73v15.76h-2.32l-8.69-11.21v11.21h-2.72V216.55z"/>
		<path class="st2" d="M239.82,216.55h2.57l8.44,10.9v-10.9h2.73v15.76h-2.32l-8.69-11.21v11.21h-2.72V216.55z"/>
		<path class="st2" d="M258.04,225.62v-9.07h2.77v8.96c0,2.92,1.51,4.5,3.98,4.5c2.46,0,3.96-1.48,3.96-4.39v-9.07h2.77v8.94
			c0,4.71-2.65,7.07-6.77,7.07C260.66,232.56,258.04,230.2,258.04,225.62z"/>
		<path class="st2" d="M276.01,216.55h7.03c1.98,0,3.53,0.59,4.55,1.58c0.83,0.86,1.31,2.02,1.31,3.4v0.04
			c0,2.59-1.55,4.14-3.76,4.78l4.26,5.96h-3.26l-3.87-5.49h-0.05h-3.42v5.49h-2.77V216.55z M282.84,224.36
			c1.98,0,3.24-1.03,3.24-2.63v-0.05c0-1.69-1.21-2.61-3.26-2.61h-4.03v5.29H282.84z"/>
		<path class="st2" d="M291.58,230.02l1.67-1.98c1.5,1.31,3.01,2.05,4.97,2.05c1.71,0,2.79-0.79,2.79-1.98v-0.05
			c0-1.12-0.63-1.74-3.56-2.41c-3.35-0.81-5.25-1.8-5.25-4.71v-0.04c0-2.7,2.25-4.57,5.38-4.57c2.3,0,4.12,0.7,5.72,1.99l-1.49,2.09
			c-1.42-1.05-2.84-1.62-4.28-1.62c-1.62,0-2.57,0.83-2.57,1.87v0.04c0,1.21,0.72,1.76,3.74,2.48c3.34,0.81,5.07,2,5.07,4.61v0.05
			c0,2.95-2.32,4.71-5.63,4.71C295.74,232.54,293.47,231.71,291.58,230.02z"/>
		<path class="st2" d="M307.57,216.55h11.69v2.48h-8.91v4.1h7.9v2.48h-7.9v4.24h9.02v2.47h-11.8V216.55z"/>
		<path class="st2" d="M322.17,230.02l1.67-1.98c1.5,1.31,3.02,2.05,4.98,2.05c1.71,0,2.79-0.79,2.79-1.98v-0.05
			c0-1.12-0.63-1.74-3.56-2.41c-3.35-0.81-5.25-1.8-5.25-4.71v-0.04c0-2.7,2.25-4.57,5.38-4.57c2.3,0,4.12,0.7,5.72,1.99l-1.49,2.09
			c-1.42-1.05-2.84-1.62-4.28-1.62c-1.62,0-2.57,0.83-2.57,1.87v0.04c0,1.21,0.72,1.76,3.74,2.48c3.33,0.81,5.06,2,5.06,4.61v0.05
			c0,2.95-2.32,4.71-5.63,4.71C326.34,232.54,324.06,231.71,322.17,230.02z"/>
	</g>
	<g>
		<path class="st2" d="M100.13,251.48v-0.04c0-3.47,2.6-6.32,6.3-6.32c2.25,0,3.61,0.79,4.78,1.91l-1.38,1.58
			c-0.99-0.91-2.03-1.52-3.42-1.52c-2.34,0-4.03,1.92-4.03,4.31v0.03c0,2.39,1.69,4.35,4.03,4.35c1.5,0,2.46-0.61,3.51-1.59
			l1.38,1.4c-1.27,1.33-2.67,2.16-4.96,2.16C102.78,257.76,100.13,254.98,100.13,251.48z"/>
		<path class="st2" d="M113.85,245.33h5.44c1.54,0,2.74,0.46,3.53,1.22c0.64,0.66,1.01,1.57,1.01,2.64v0.03
			c0,2.01-1.21,3.21-2.91,3.7l3.3,4.63h-2.53l-3.01-4.26h-0.03h-2.66v4.26h-2.14V245.33z M119.13,251.39c1.54,0,2.52-0.8,2.52-2.04
			v-0.03c0-1.31-0.94-2.02-2.53-2.02h-3.13v4.1H119.13z"/>
		<path class="st2" d="M126.88,245.33h9.06v1.92h-6.91v3.17h6.12v1.92h-6.12v3.28h7v1.92h-9.15V245.33z"/>
		<path class="st2" d="M139.04,245.33h4.55c3.84,0,6.49,2.63,6.49,6.08v0.03c0,3.44-2.65,6.11-6.49,6.11h-4.55V245.33z
			 M143.59,255.59c2.57,0,4.25-1.72,4.25-4.12v-0.04c0-2.39-1.68-4.15-4.25-4.15h-2.41v8.3H143.59z"/>
		<path class="st2" d="M153.07,245.33h9.06v1.92h-6.91v3.17h6.12v1.92h-6.12v3.28h6.99v1.92h-9.14V245.33z"/>
		<path class="st2" d="M165.22,245.33h1.99l6.55,8.45v-8.45h2.11v12.22h-1.8l-6.74-8.7v8.7h-2.11V245.33z"/>
		<path class="st2" d="M182.2,247.32h-3.87v-1.99h9.91v1.99h-3.87v10.23h-2.17V247.32z"/>
		<path class="st2" d="M190.76,245.33h2.14v12.22h-2.14V245.33z"/>
		<path class="st2" d="M200.68,245.25h1.99l5.38,12.31h-2.27l-1.24-2.95h-5.78l-1.25,2.95h-2.21L200.68,245.25z M203.75,252.7
			l-2.11-4.88l-2.09,4.88H203.75z"/>
		<path class="st2" d="M210.42,245.33h2.15v10.26h6.42v1.96h-8.57V245.33z"/>
		<path class="st2" d="M221.49,245.33h2.14v12.22h-2.14V245.33z"/>
		<path class="st2" d="M227.29,245.33h1.99l6.54,8.45v-8.45h2.12v12.22h-1.8l-6.74-8.7v8.7h-2.11V245.33z"/>
		<path class="st2" d="M240.93,251.48v-0.04c0-3.42,2.62-6.32,6.3-6.32c2.13,0,3.44,0.59,4.69,1.65l-1.36,1.63
			c-0.94-0.8-1.87-1.31-3.42-1.31c-2.25,0-3.96,1.97-3.96,4.31v0.03c0,2.52,1.66,4.36,4.15,4.36c1.15,0,2.2-0.36,2.95-0.92v-2.29
			h-3.12v-1.87h5.2v5.13c-1.21,1.03-2.93,1.9-5.09,1.9C243.44,257.76,240.93,255.04,240.93,251.48z"/>
		<path class="st2" d="M260.21,251.48v-0.04c0-3.47,2.6-6.32,6.3-6.32c2.25,0,3.61,0.79,4.79,1.91l-1.38,1.58
			c-0.98-0.91-2.02-1.52-3.42-1.52c-2.34,0-4.04,1.92-4.04,4.31v0.03c0,2.39,1.69,4.35,4.04,4.35c1.5,0,2.46-0.61,3.51-1.59
			l1.37,1.4c-1.27,1.33-2.67,2.16-4.96,2.16C262.86,257.76,260.21,254.98,260.21,251.48z"/>
		<path class="st2" d="M273.92,245.33h9.06v1.92h-6.91v3.17h6.12v1.92h-6.12v3.28h7v1.92h-9.14V245.33z"/>
		<path class="st2" d="M286.07,245.33h2l6.54,8.45v-8.45h2.11v12.22h-1.79l-6.74-8.7v8.7h-2.12V245.33z"/>
		<path class="st2" d="M303.05,247.32h-3.87v-1.99h9.91v1.99h-3.87v10.23h-2.17V247.32z"/>
		<path class="st2" d="M311.55,245.33h9.06v1.92h-6.91v3.17h6.12v1.92h-6.12v3.28h6.99v1.92h-9.14V245.33z"/>
		<path class="st2" d="M323.71,245.33h5.44c1.54,0,2.74,0.46,3.53,1.22c0.65,0.66,1.01,1.57,1.01,2.64v0.03
			c0,2.01-1.2,3.21-2.91,3.7l3.29,4.63h-2.54l-3-4.26h-0.03h-2.65v4.26h-2.14V245.33z M328.99,251.39c1.54,0,2.52-0.8,2.52-2.04
			v-0.03c0-1.31-0.95-2.02-2.53-2.02h-3.12v4.1H328.99z"/>
	</g>
</g>
</svg>
