<?xml version="1.0" encoding="utf-8"?>
<!-- Generator: Adobe Illustrator 26.0.2, SVG Export Plug-In . SVG Version: 6.00 Build 0)  -->
<svg version="1.1" id="Layer_1" xmlns="http://www.w3.org/2000/svg" xmlns:xlink="http://www.w3.org/1999/xlink" x="0px" y="0px"
	 viewBox="0 0 200 206.37" style="enable-background:new 0 0 200 206.37;" xml:space="preserve">
<style type="text/css">
	.st0{fill:#FFFFFF;}
	.st1{fill:#B0ACAC;}
	.st2{fill:url(#SVGID_1_);}
	.st3{fill:#302D2C;}
	.st4{fill:url(#gold_shield_00000066490379418082894710000017100814268028086461_);}
	.st5{fill:#164684;}
	.st6{fill:#E1E1E1;}
	.st7{fill:#C5001D;}
	.st8{fill:#1F5298;}
	.st9{fill:#DF0022;}
	.st10{fill:#676562;}
</style>
<g>
	<g>
		<polygon class="st0" points="24.17,182.08 24.06,0.29 175.9,0.29 176.01,182.07 100.09,206.06 		"/>
		<path class="st1" d="M175.61,0.59l0.11,181.24l-75.63,23.93l-75.63-23.93L24.35,0.59H175.61 M176.2,0H23.77l0.11,182.37l76.21,24
			l76.21-24L176.2,0L176.2,0z"/>
	</g>
	<linearGradient id="SVGID_1_" gradientUnits="userSpaceOnUse" x1="35.3783" y1="-0.8046" x2="164.6945" y2="183.8781">
		<stop  offset="0" style="stop-color:#B0ACA5"/>
		<stop  offset="0.149" style="stop-color:#C7C2BD"/>
		<stop  offset="0.4426" style="stop-color:#F0EDEB"/>
		<stop  offset="0.589" style="stop-color:#FFFFFF"/>
		<stop  offset="0.6966" style="stop-color:#F4F2F2"/>
		<stop  offset="0.838" style="stop-color:#EBE9E8"/>
		<stop  offset="1" style="stop-color:#E8E6E5"/>
	</linearGradient>
	<polygon class="st2" points="172.02,4.4 27.94,4.4 28.05,178.67 100.09,201.18 172.13,178.67 	"/>
	<g>
		<path class="st1" d="M59.41,182.29v-1.95c5.14-2.89,8.58-5.12,8.64-8.51c0-0.17,0-0.25,0-0.4c-0.02-1.4-0.94-2.43-3.12-2.43
			c-2.1,0-3.02,0.99-3.17,2.2c-0.02,0.19-0.02,0.57-0.02,0.8h-2.2c0-0.33,0.02-0.84,0.04-1.19c0.27-1.99,1.82-3.8,5.54-3.8
			c3.84,0,5.24,1.89,5.33,4.01c0.02,0.23,0,0.61-0.02,0.86c-0.11,3.4-3.65,6.21-7.61,8.47h8.07v1.93H59.41z"/>
		<path class="st1" d="M83.65,170.84c0.25,1.03,0.29,2.39,0.29,3.9c0,1.26-0.13,3.12-0.4,4.02c-0.69,2.54-2.49,3.71-5.47,3.71
			c-3.1,0-4.76-1.07-5.49-3.75c-0.29-1.01-0.38-2.71-0.38-4c0-1.49,0.02-2.64,0.29-3.88c0.5-2.33,2.39-3.82,5.6-3.82
			C81.32,167.02,83.16,168.64,83.65,170.84z M81.44,171.32c-0.29-1.43-1.45-2.35-3.36-2.35c-1.95,0-3.14,0.92-3.4,2.35
			c-0.13,0.73-0.19,2.5-0.19,3.42c0,1.21,0.11,2.81,0.29,3.52c0.38,1.57,1.49,2.29,3.33,2.29c1.82,0,2.89-0.78,3.29-2.29
			c0.17-0.65,0.27-2.5,0.27-3.54C81.65,173.75,81.59,172.02,81.44,171.32z"/>
		<path class="st1" d="M85.44,182.29v-1.95c5.14-2.89,8.58-5.12,8.64-8.51c0-0.17,0-0.25,0-0.4c-0.02-1.4-0.94-2.43-3.12-2.43
			c-2.1,0-3.02,0.99-3.17,2.2c-0.02,0.19-0.02,0.57-0.02,0.8h-2.2c0-0.33,0.02-0.84,0.04-1.19c0.27-1.99,1.82-3.8,5.54-3.8
			c3.84,0,5.24,1.89,5.33,4.01c0.02,0.23,0,0.61-0.02,0.86c-0.11,3.4-3.65,6.21-7.61,8.47h8.07v1.93H85.44z"/>
		<path class="st1" d="M102.13,182.29v-12.52l-3.79,0.61v-1.8c3.23-0.52,4.02-0.9,4.28-1.47h1.68v15.18H102.13z"/>
		<path class="st1" d="M106.3,176.29v-2.1h8.18v2.1H106.3z"/>
		<path class="st1" d="M116.44,182.29v-1.95c5.14-2.89,8.58-5.12,8.64-8.51c0-0.17,0-0.25,0-0.4c-0.02-1.4-0.94-2.43-3.12-2.43
			c-2.1,0-3.02,0.99-3.17,2.2c-0.02,0.19-0.02,0.57-0.02,0.8h-2.2c0-0.33,0.02-0.84,0.04-1.19c0.27-1.99,1.82-3.8,5.54-3.8
			c3.84,0,5.24,1.89,5.33,4.01c0.02,0.23,0,0.61-0.02,0.86c-0.11,3.4-3.65,6.21-7.61,8.47h8.07v1.93H116.44z"/>
		<path class="st1" d="M129.38,182.29v-1.95c5.14-2.89,8.58-5.12,8.64-8.51c0-0.17,0-0.25,0-0.4c-0.02-1.4-0.94-2.43-3.12-2.43
			c-2.1,0-3.02,0.99-3.17,2.2c-0.02,0.19-0.02,0.57-0.02,0.8h-2.2c0-0.33,0.02-0.84,0.04-1.19c0.27-1.99,1.82-3.8,5.54-3.8
			c3.84,0,5.24,1.89,5.33,4.01c0.02,0.23,0,0.61-0.02,0.86c-0.11,3.4-3.65,6.21-7.61,8.47h8.07v1.93H129.38z"/>
	</g>
	<g>
		<path class="st3" d="M39.65,46.34V16.07h-4.96v-5.05h13.44c3.7,0,6.47,0.22,8.32,0.67c1.85,0.45,3.48,1.57,4.89,3.38
			c1.41,1.81,2.12,3.93,2.12,6.37c0,1.88-0.42,3.57-1.26,5.08c-0.84,1.51-2.08,2.65-3.7,3.42c2.24,0.77,3.97,2.06,5.18,3.85
			c1.21,1.79,1.81,3.84,1.81,6.14c0,1.99-0.45,3.8-1.35,5.43c-0.9,1.63-2.09,2.88-3.58,3.77c-1.49,0.89-3.12,1.49-4.89,1.8
			s-4.18,0.46-7.24,0.46H34.69v-5.05H39.65z M45.74,27.82h3.8c2.9,0,4.93-0.51,6.08-1.52c1.15-1.02,1.73-2.51,1.73-4.48
			c0-3.83-2.6-5.75-7.81-5.75h-3.8V27.82z M45.74,46.34h2.29c3,0,5.2-0.15,6.59-0.45c1.39-0.3,2.53-1.01,3.41-2.12
			c0.88-1.11,1.32-2.54,1.32-4.28c0-1.59-0.42-2.92-1.26-3.99c-0.84-1.07-1.93-1.79-3.25-2.15c-1.33-0.36-3.2-0.54-5.62-0.54h-3.48
			V46.34z"/>
		<path class="st3" d="M71.35,46.34V16.07h-5.22v-5.05h33.55v12.16h-4.99v-7.11H77.44v12.02h15.01v5.05H77.44v13.21h17.24V39h4.99
			v12.39H66.12v-5.05H71.35z"/>
		<path class="st3" d="M103.12,51.49V36.84h5.05v3.57c2.42,4.39,5.58,6.59,9.49,6.59c1.99,0,3.68-0.61,5.05-1.83
			c1.37-1.22,2.06-2.82,2.06-4.79c0-1.92-0.56-3.29-1.68-4.14c-1.12-0.84-3.24-1.68-6.36-2.51c-3.62-0.97-6.3-1.88-8.04-2.74
			c-1.74-0.86-3.13-2.09-4.17-3.69c-1.04-1.6-1.55-3.49-1.55-5.67c0-3.39,1.13-6.09,3.38-8.11c2.25-2.02,5.08-3.03,8.49-3.03
			c3.23,0,6.23,1.04,9,3.13v-2.7h4.93v12.25h-4.93v-2.82c-2.07-3.12-4.92-4.67-8.56-4.67c-2.21,0-3.9,0.51-5.08,1.52
			c-1.18,1.02-1.77,2.23-1.77,3.64c0,1.08,0.3,2.04,0.9,2.86c0.6,0.82,1.36,1.43,2.29,1.81c0.93,0.39,2.76,0.93,5.49,1.62
			c3.56,0.93,6.14,1.79,7.75,2.59c1.61,0.8,2.99,2.14,4.15,4.02c1.16,1.88,1.74,4.04,1.74,6.47c0,3.45-1.21,6.29-3.64,8.54
			c-2.43,2.25-5.43,3.37-9.01,3.37c-3.68,0-6.99-1.33-9.93-3.98v3.34H103.12z"/>
		<path class="st3" d="M146.03,46.44V16.17h-8.33v10.3h-4.99V11.12h32.71v15.35h-4.99v-10.3h-8.3v30.27h5.25v5.05h-16.52v-5.05
			H146.03z"/>
	</g>
	<g>
		<polygon class="st5" points="0,100.13 23.65,100.13 23.65,131.97 2,131.97 6.59,118.89 		"/>
		<polygon class="st6" points="23.65,133.28 1.54,133.28 2,131.97 23.65,131.97 		"/>
		<polygon class="st7" points="23.65,137.65 0,137.65 1.54,133.28 23.65,133.28 		"/>
	</g>
	<g>
		<polygon class="st5" points="200,100.13 176.35,100.13 176.35,131.97 198,131.97 193.41,118.89 		"/>
		<polygon class="st6" points="176.35,133.28 198.46,133.28 198,131.97 176.35,131.97 		"/>
		<polygon class="st7" points="176.35,137.65 200,137.65 198.46,133.28 176.35,133.28 		"/>
	</g>
	<polygon class="st3" points="23.79,129.41 23.79,137.77 14.01,129.37 	"/>
	<polygon class="st3" points="176.29,129.41 176.29,137.77 185.31,129.37 	"/>
	<rect x="14.04" y="91.74" class="st8" width="171.21" height="33.35"/>
	<g id="U.S.News_7_">
		<path class="st0" d="M38.6,124.55c-6.06,0-10.58-2.28-10.58-7.97c0-0.55,0-16.64,0-16.64h5.32c0,0,0,15.72,0,16.18
			c0,2.56,1.91,4.06,5.38,4.06c3.05,0,5.2-1.5,5.2-4.03c0-0.46,0-16.21,0-16.21h5.32c0,0,0,16.45,0,16.94
			C49.24,122.03,44.81,124.55,38.6,124.55z"/>
		<path class="st0" d="M47.91,124.24v-4.95h4.74v4.95H47.91z"/>
		<path class="st0" d="M64.21,124.57c-7.35,0-10-2.22-10.98-5.29c-0.25-0.8-0.34-2-0.34-2.49h5.47c0,0.43,0.16,1.17,0.34,1.54
			c0.68,1.42,2.28,2.03,5.5,2.03c3.69,0,4.98-1.01,4.98-2.61c0-2-1.02-2.71-4.95-3.44c-0.71-0.13-2.49-0.47-3.57-0.68
			c-4.74-0.89-7.66-3.07-7.66-7.1c0-4.13,3.32-6.89,10.46-6.89c6.09,0,8.95,2.12,10.18,5.2c0.31,0.8,0.56,1.72,0.56,2.34h-5.48
			c0-0.28-0.15-0.83-0.34-1.2c-0.65-1.35-1.97-2.06-5.04-2.06c-4.03,0-4.83,0.89-4.83,2.28c0,1.78,1.45,2.49,5.42,3.29
			c1.23,0.24,2.83,0.59,3.38,0.68c4.83,0.92,7.35,2.92,7.35,7.08C74.66,121.62,71.19,124.57,64.21,124.57z"/>
		<path class="st0" d="M73.45,124.24v-4.95h4.74v4.95H73.45z"/>
		<path class="st0" d="M94.68,124.24l-9.78-16.46v16.46h-5.07v-24.3h6.18l9.35,15.65V99.94h5.07v24.3H94.68z"/>
		<path class="st0" d="M118.83,122.9c-1.57,1.01-3.75,1.63-6.65,1.63c-3.98,0-7.2-1.17-8.93-3.91c-0.88-1.4-1.37-3.19-1.37-5.44
			c0-2.05,0.56-3.88,1.56-5.31c1.73-2.51,4.82-3.98,8.74-3.98c4.1,0,6.91,1.5,8.51,3.81c1.34,1.96,1.82,4.53,1.53,7.23h-15.19
			c0,0.82,0.36,1.44,0.98,2.12c0.75,0.82,2.22,1.34,4.17,1.34c1.47,0,2.54-0.26,3.29-0.59c0.94-0.42,1.4-1.01,1.49-1.4h5.12
			C121.67,120.13,120.63,121.76,118.83,122.9z M116.16,111.46c-0.75-0.75-1.99-1.37-3.95-1.37c-1.85,0-3.22,0.49-4.1,1.27
			c-0.62,0.55-1.11,1.63-1.11,2.15h10.03C117.03,112.99,116.81,112.15,116.16,111.46z"/>
		<path class="st0" d="M147.73,124.24h-6.16c0,0-3.52-10.3-3.59-10.89c-0.04-0.23-0.23-1.29-0.23-1.29s-0.19,1.06-0.23,1.26
			c-0.03,0.62-3.55,10.92-3.55,10.92h-6.2l-6.41-17.92h5.44l4.3,13.33l3.94-13.33h5.8l4.04,13.33l4.2-13.33h5.12L147.73,124.24z"/>
		<path class="st0" d="M163.78,124.56c-6.06,0-8.93-1.21-9.68-4.14c-0.16-0.71-0.19-1.2-0.19-1.79h5.18c0,0.23,0.03,0.55,0.16,0.91
			c0.33,0.85,1.7,1.08,4.53,1.08c2.96,0,3.88-0.52,3.88-1.56c0-1.01-1.08-1.24-3.72-1.63c-0.68-0.1-2.83-0.42-3.91-0.59
			c-3.94-0.55-5.83-2.28-5.83-5.7c0-3.19,2.87-5.28,8.64-5.28c4.92,0,8.02,1.27,8.93,3.84c0.23,0.69,0.33,1.79,0.33,2.15h-5.05
			c0-0.19-0.07-0.75-0.23-0.98c-0.36-0.49-1.3-0.91-3.78-0.91c-2.87,0-3.72,0.46-3.72,1.31c0,0.78,0.56,1.07,3.1,1.47
			c1.04,0.16,3.55,0.52,4.17,0.62c4.3,0.65,6.19,2.25,6.19,5.61C172.78,122.67,169.98,124.56,163.78,124.56z"/>
	</g>
	<g id="_x26__World_Report_7_">
		<path class="st0" d="M106.25,103.24c0.16-0.21,0.25-0.46,0.27-0.74h1.37c-0.02,0.61-0.27,1.14-0.66,1.52
			c0.32,0.24,0.69,0.52,1.05,0.8h-1.86c-0.08-0.06-0.16-0.12-0.23-0.19c-0.38,0.16-0.88,0.23-1.34,0.23c-1.16,0-2.21-0.21-2.25-1.11
			c0-0.07,0-0.19,0-0.25c0.01-0.56,0.54-0.9,1.12-1.17c-0.28-0.4-0.39-0.74-0.4-1.03c0-0.06,0-0.17,0-0.25
			c0.03-0.6,0.62-1.17,1.64-1.17c0.93,0,1.47,0.54,1.5,1.13c0.01,0.04,0,0.18,0,0.21c-0.01,0.62-0.49,1.05-0.98,1.35
			C105.69,102.75,105.97,103,106.25,103.24z M104.04,103.54c0,0.24,0.22,0.32,0.73,0.32c0.14,0,0.31-0.02,0.43-0.05
			c-0.28-0.24-0.57-0.47-0.78-0.67C104.2,103.27,104.04,103.41,104.04,103.54z M105.24,101.33c0-0.03,0-0.08,0-0.1
			c-0.01-0.16-0.08-0.3-0.31-0.3c-0.22,0-0.31,0.15-0.33,0.32c0,0.04,0,0.09,0,0.13c0.01,0.13,0.08,0.29,0.2,0.45
			C105.05,101.68,105.22,101.52,105.24,101.33z"/>
		<path class="st0" d="M115.62,104.81h-1.63c0,0-0.73-2.81-0.75-2.97c-0.01,0.16-0.76,2.97-0.76,2.97h-1.62l-1.4-4.88h1.6
			c0,0,0.74,3.02,0.74,3.17c0-0.15,0.72-3.17,0.72-3.17h1.54c0,0,0.74,3.02,0.74,3.17c0-0.15,0.73-3.17,0.73-3.17h1.45
			L115.62,104.81z"/>
		<path class="st0" d="M122.26,102.33c0,1.72-0.82,2.56-2.6,2.56c-1.79,0-2.61-0.87-2.61-2.54c0-1.56,0.8-2.5,2.61-2.5
			C121.5,99.84,122.26,100.7,122.26,102.33z M120.75,102.36c0-0.97-0.27-1.37-1.09-1.37c-0.8,0-1.08,0.38-1.08,1.37
			c0,1.03,0.37,1.38,1.09,1.38C120.35,103.74,120.75,103.45,120.75,102.36z"/>
		<path class="st0" d="M127.39,102.39c-0.15,0.26-0.38,0.41-0.6,0.46l1.14,1.95h-1.68l-0.86-1.65h-1.01v1.65h-1.47v-4.88h3.09
			c0.65,0,1.07,0.19,1.32,0.51c0.19,0.24,0.28,0.57,0.28,1.03C127.61,101.87,127.53,102.18,127.39,102.39z M126.1,101.28
			c-0.07-0.16-0.22-0.2-0.43-0.2h-1.26v1h1.29c0.18,0,0.34-0.04,0.4-0.16c0.04-0.09,0.06-0.22,0.06-0.31
			C126.15,101.49,126.14,101.36,126.1,101.28z"/>
		<path class="st0" d="M128.64,104.81v-4.88h1.51v3.68h2.34v1.21H128.64z"/>
		<path class="st0" d="M136,104.81h-2.75v-4.88h2.68c0.88,0,1.43,0.22,1.73,0.64c0.3,0.41,0.36,0.82,0.36,1.71
			c0,1.04-0.07,1.42-0.34,1.83C137.38,104.56,136.88,104.81,136,104.81z M136.57,102.28c0-0.35-0.04-0.8-0.15-0.94
			c-0.19-0.21-0.37-0.26-0.74-0.26h-0.94v2.59h0.94c0.38,0,0.58-0.08,0.75-0.28C136.55,103.23,136.57,102.67,136.57,102.28z"/>
		<path class="st0" d="M144.98,102.39c-0.15,0.26-0.38,0.41-0.6,0.46l1.14,1.95h-1.68l-0.86-1.65h-1.01v1.65h-1.47v-4.88h3.09
			c0.65,0,1.07,0.19,1.32,0.51c0.19,0.24,0.28,0.57,0.28,1.03C145.19,101.87,145.1,102.18,144.98,102.39z M143.68,101.28
			c-0.08-0.16-0.22-0.2-0.44-0.2h-1.26v1h1.29c0.18,0,0.35-0.04,0.4-0.16c0.04-0.09,0.05-0.22,0.05-0.31
			C143.73,101.49,143.72,101.36,143.68,101.28z"/>
		<path class="st0" d="M146.29,104.81v-4.88h4.15v1.15h-2.68v0.71h2.58v1.16h-2.58v0.73h2.71v1.14H146.29z"/>
		<path class="st0" d="M155.78,102.8c-0.28,0.33-0.75,0.48-1.35,0.5c-0.18,0-1.51-0.01-1.51-0.01v1.53h-1.5v-4.88h3
			c0.59,0,1.01,0.13,1.27,0.41c0.29,0.25,0.44,0.67,0.44,1.27C156.14,102.15,156.02,102.54,155.78,102.8z M154.57,101.29
			c-0.08-0.16-0.22-0.23-0.47-0.23h-1.19v1.12c0,0,1.17,0,1.17,0c0.29,0,0.43-0.09,0.5-0.23c0.05-0.09,0.06-0.18,0.06-0.32
			C154.64,101.49,154.62,101.36,154.57,101.29z"/>
		<path class="st0" d="M161.87,102.33c0,1.72-0.82,2.56-2.6,2.56c-1.79,0-2.61-0.87-2.61-2.54c0-1.56,0.8-2.5,2.61-2.5
			C161.11,99.84,161.87,100.7,161.87,102.33z M160.36,102.36c0-0.97-0.26-1.37-1.09-1.37c-0.8,0-1.08,0.38-1.08,1.37
			c0,1.03,0.37,1.38,1.08,1.38C159.96,103.74,160.36,103.45,160.36,102.36z"/>
		<path class="st0" d="M167.03,102.39c-0.16,0.26-0.38,0.41-0.6,0.46l1.14,1.95h-1.67l-0.86-1.65h-1.01v1.65h-1.47v-4.88h3.09
			c0.65,0,1.08,0.19,1.32,0.51c0.19,0.24,0.28,0.57,0.28,1.03C167.25,101.87,167.16,102.18,167.03,102.39z M165.73,101.28
			c-0.07-0.16-0.22-0.2-0.44-0.2h-1.26v1h1.29c0.19,0,0.35-0.04,0.4-0.16c0.04-0.09,0.05-0.22,0.05-0.31
			C165.78,101.49,165.77,101.36,165.73,101.28z"/>
		<path class="st0" d="M170.76,101.11v3.71h-1.52v-3.71h-1.55v-1.18h4.63v1.18H170.76z"/>
	</g>
	<rect x="14.05" y="123.73" class="st0" width="171.19" height="1.57"/>
	<rect x="14.01" y="125.04" class="st9" width="171.31" height="4.54"/>
	<g>
		<path class="st3" d="M41.36,65.7c0,2.23-0.14,3.62-0.44,4.6c-0.24,0.68-0.74,1.55-1.18,1.72l2.2,13.42h-2.2l-1.93-12.78
			l-1.05,0.03v12.74h-2.03V58.4h3.21c1.86,0,2.74,1.01,3.14,2.8C41.26,61.98,41.36,63.57,41.36,65.7z M39.16,66.03
			c0-1.39-0.1-3.51-0.14-3.85c-0.07-1.01-0.51-1.76-1.25-1.76H36.8V70.7c0.03,0,0.78,0,1.08-0.07c0.57-0.07,0.81-0.51,0.95-0.95
			C39.06,69.04,39.16,67.08,39.16,66.03z"/>
		<path class="st3" d="M49.17,85.43h-6.08V58.4h6.05v2.03h-3.95v10.34h3.48v2.03h-3.48v10.61h3.99V85.43z"/>
		<path class="st3" d="M56.91,85.43h-1.42l-0.1-0.95c-0.34,0.74-1.25,1.12-2.1,1.12c-1.86,0-3.08-1.05-3.18-3.51
			c-0.03-0.74-0.1-7.67-0.1-10.17c0-2.5,0-7.54,0.07-9.7c0.1-2.26,1.15-3.99,3.41-3.99c2.4,0,3.21,1.76,3.28,3.38
			c0.07,1.29,0,5.2,0,5.2h-2.06v-4.56c0-1.39-0.44-1.83-1.22-1.83c-0.74,0-1.28,0.54-1.28,1.99c0,1.62-0.03,7.74-0.03,9.53
			c0,1.35,0.03,8.48,0.03,9.63c0,1.32,0.41,1.99,1.32,1.99c0.85,0,1.32-0.61,1.32-1.86v-8.59h-1.76V71.1h3.79v8.28
			C56.87,82.46,56.91,85.43,56.91,85.43z"/>
		<path class="st3" d="M60.59,85.43h-2.13V58.4h2.13V85.43z"/>
		<path class="st3" d="M65.9,58.26c2.37,0,3.58,1.39,3.65,4.53c0.03,1.22,0.03,6.35,0.03,9.02c0,2.97,0,7.57-0.03,9.33
			c-0.1,2.97-1.18,4.5-3.65,4.5s-3.52-1.42-3.58-4.43c-0.03-0.74-0.03-6.46-0.03-9.36c0-2.5,0-8.04,0.03-8.96
			C62.38,59.78,63.43,58.26,65.9,58.26z M65.97,83.54c1.01,0,1.32-0.91,1.39-1.99c0.07-1.18,0.07-7.6,0.07-9.67
			c0-1.83,0-8.18-0.03-9.26c-0.03-1.55-0.37-2.23-1.45-2.23c-1.22,0-1.45,0.88-1.45,2.26c0,1.12-0.03,7.37-0.03,9.33
			c0,2.06,0,8.42,0.03,9.57C64.51,82.7,64.82,83.54,65.97,83.54z"/>
		<path class="st3" d="M78.13,85.43h-2.37l-2.64-17.54v17.54h-1.89V58.4h2.26l2.7,19.13V58.4h1.93V85.43z"/>
		<path class="st3" d="M81.68,78.84c0,0.74-0.51,6.59-0.51,6.59h-2.06l2.81-27.04h2.81l2.2,27.04h-2.1c0,0-0.37-5.85-0.41-6.59
			H81.68z M84.29,76.82c0,0-0.91-10.07-0.91-10.75c0-0.68-0.17-5.17-0.17-5.17s-0.2,4.46-0.24,5.14
			c-0.07,0.95-1.08,10.78-1.08,10.78H84.29z"/>
		<path class="st3" d="M94.09,85.43h-6.15V58.4h2.13v25.01h4.02V85.43z"/>
		<path class="st3" d="M105.95,85.43h-2.1V72.79h-2.74v12.64h-2.1V58.4h2.1v12.37h2.74V58.4h2.1V85.43z"/>
		<path class="st3" d="M111.29,58.26c2.37,0,3.58,1.39,3.65,4.53c0.03,1.22,0.03,6.35,0.03,9.02c0,2.97,0,7.57-0.03,9.33
			c-0.1,2.97-1.18,4.5-3.65,4.5c-2.47,0-3.52-1.42-3.58-4.43c-0.03-0.74-0.03-6.46-0.03-9.36c0-2.5,0-8.04,0.03-8.96
			C107.78,59.78,108.82,58.26,111.29,58.26z M111.36,83.54c1.01,0,1.32-0.91,1.39-1.99c0.07-1.18,0.07-7.6,0.07-9.67
			c0-1.83,0-8.18-0.03-9.26c-0.03-1.55-0.37-2.23-1.45-2.23c-1.22,0-1.45,0.88-1.45,2.26c0,1.12-0.03,7.37-0.03,9.33
			c0,2.06,0,8.42,0.03,9.57C109.91,82.7,110.21,83.54,111.36,83.54z"/>
		<path class="st3" d="M123.12,80.5c0,3.79-1.28,5.14-3.52,5.14c-2.2,0-3.41-1.25-3.41-3.45v-3.82h1.96v3.41
			c0,1.42,0.54,1.93,1.35,1.93c0.91,0,1.42-0.61,1.42-2.84c0-3.04-0.37-4.93-1.55-7.57c-0.3-0.64-0.91-1.93-1.28-2.67
			c-1.39-2.74-2.03-4.66-2.03-7.67c0-3.04,1.32-4.7,3.58-4.7c2.43,0,3.31,1.83,3.35,4.5c0,0.17,0.03,3.04,0.03,3.04h-2.06v-2.97
			c0-1.59-0.27-2.5-1.35-2.5c-1.01,0-1.35,0.78-1.35,2.84c0,2.16,0.57,4.16,1.72,6.32c0.41,0.78,0.88,1.69,1.28,2.54
			C122.58,74.75,123.12,77.22,123.12,80.5z"/>
		<path class="st3" d="M131.27,66.3c0,3.35-0.24,5.24-0.95,6.32c-0.57,0.88-1.35,1.35-2.5,1.49c-0.57,0.07-1.25,0.03-1.25,0.03
			v11.29h-2.1V58.4h3.41c1.18,0,1.89,0.54,2.5,1.52C130.89,60.76,131.27,62.96,131.27,66.3z M129.1,66.37c0-2.6-0.24-4.26-0.47-4.8
			c-0.37-0.88-0.88-1.08-1.32-1.08h-0.74v11.63h0.64c0.95-0.03,1.22-0.54,1.49-1.18C128.97,70.29,129.1,68.97,129.1,66.37z"/>
		<path class="st3" d="M134.85,85.43h-2.13V58.4h2.13V85.43z"/>
		<path class="st3" d="M142.86,60.42h-2.43v25.01h-2.13V60.42h-2.4V58.4h6.96V60.42z"/>
		<path class="st3" d="M145.06,78.84c0,0.74-0.51,6.59-0.51,6.59h-2.06l2.81-27.04h2.81l2.2,27.04h-2.1c0,0-0.37-5.85-0.41-6.59
			H145.06z M147.66,76.82c0,0-0.91-10.07-0.91-10.75c0-0.68-0.17-5.17-0.17-5.17s-0.2,4.46-0.24,5.14
			c-0.07,0.95-1.08,10.78-1.08,10.78H147.66z"/>
		<path class="st3" d="M158.04,85.43h-6.15V58.4h2.13v25.01h4.02V85.43z"/>
		<path class="st3" d="M165.81,80.5c0,3.79-1.28,5.14-3.52,5.14c-2.2,0-3.41-1.25-3.41-3.45v-3.82h1.96v3.41
			c0,1.42,0.54,1.93,1.35,1.93c0.91,0,1.42-0.61,1.42-2.84c0-3.04-0.37-4.93-1.55-7.57c-0.3-0.64-0.91-1.93-1.28-2.67
			c-1.39-2.74-2.03-4.66-2.03-7.67c0-3.04,1.32-4.7,3.58-4.7c2.43,0,3.31,1.83,3.35,4.5c0,0.17,0.03,3.04,0.03,3.04h-2.06v-2.97
			c0-1.59-0.27-2.5-1.35-2.5c-1.01,0-1.35,0.78-1.35,2.84c0,2.16,0.57,4.16,1.72,6.32c0.41,0.78,0.88,1.69,1.28,2.54
			C165.27,74.75,165.81,77.22,165.81,80.5z"/>
	</g>
	<g>
		<path class="st3" d="M51.61,146.42v-10.74h3.12c1.49,0,2.34,0.8,2.34,2.63c0,1.28-0.3,2.46-1.36,2.59
			c1.31,0.24,1.69,1.16,1.69,2.61c0,1.9-0.81,2.9-2.35,2.9H51.61z M54.61,136.81h-1.82v3.66h2.03c0.35,0,0.61-0.13,0.76-0.39
			c0.19-0.34,0.26-0.85,0.26-1.5C55.82,137.41,55.49,136.81,54.61,136.81z M55.88,142.02c-0.2-0.34-0.65-0.45-1.09-0.45h-2v3.74
			h2.08c0.9,0,1.27-0.45,1.27-1.9C56.13,142.91,56.09,142.37,55.88,142.02z"/>
		<path class="st3" d="M58.59,146.42v-10.74h1.22v9.6h3.54v1.13H58.59z"/>
		<path class="st3" d="M66.97,146.53c-1.66,0-2.81-0.74-2.81-2.49c0-0.13,0-8.36,0-8.36h1.2c0,0,0,7.97,0,8.25
			c0,1.04,0.62,1.5,1.62,1.5c0.95,0,1.55-0.49,1.55-1.49c0-0.27,0-8.26,0-8.26h1.2c0,0,0,8.28,0,8.41
			C69.74,145.71,68.66,146.53,66.97,146.53z"/>
		<path class="st3" d="M71.2,146.42v-10.74h4.9v1.13h-3.71v3.63h3.5v1.12h-3.5v3.71h3.74v1.13H71.2z"/>
		<path class="st3" d="M81.89,146.42l-0.07-0.84c-0.27,0.46-0.88,0.95-2,0.95c-2.07,0-2.93-1.3-2.93-5.47
			c0-3.62,0.54-5.48,3.07-5.48c2.23,0,2.8,1.69,2.8,3.59h-1.17c0-1.35-0.28-2.44-1.62-2.44c-1.51,0-1.82,0.99-1.82,4.36
			c0,3.23,0.23,4.4,1.85,4.4c0.96,0,1.53-0.58,1.69-1.3v-2.49h-2.07v-1.09h3.19c0,0,0,2.51,0,3.17c0,1.27,0.01,2.62,0.01,2.63H81.89
			z"/>
		<path class="st3" d="M89.1,140.51c-0.2,0.43-0.54,0.77-0.9,0.86l1.65,5.05h-1.22l-1.59-4.81h-1.86v4.81H84v-10.74h3.23
			c1.05,0,1.61,0.46,1.89,1.19c0.16,0.38,0.26,0.97,0.26,1.8C89.37,139.51,89.26,140.13,89.1,140.51z M88.03,137.51
			c-0.12-0.43-0.45-0.72-1.01-0.72h-1.84c0,0,0,3.59,0,3.75c0,0,1.9-0.01,1.97-0.01c0.45-0.03,0.72-0.2,0.82-0.49
			c0.09-0.24,0.15-0.85,0.15-1.24C88.13,138.33,88.09,137.67,88.03,137.51z"/>
		<path class="st3" d="M91.26,146.42h-1.22l2.61-10.74h1.53l2.39,10.74h-1.24l-0.57-2.63h-2.92L91.26,146.42z M93.53,138.06
			c-0.03-0.14-0.15-1.05-0.15-1.05s-0.15,0.92-0.18,1.05c-0.04,0.19-1.11,4.65-1.11,4.65h2.44
			C94.54,142.71,93.56,138.21,93.53,138.06z"/>
		<path class="st3" d="M99.89,146.53c-1.76,0-2.65-0.65-2.85-1.8c-0.09-0.53-0.08-0.97-0.08-1.31h1.19c0,0.23,0.04,0.77,0.08,1.07
			c0.11,0.72,0.76,0.99,1.7,0.99c1.04,0,1.57-0.47,1.57-1.54c0-1-0.38-1.57-1.51-2.28c-0.23-0.15-0.72-0.46-1.05-0.67
			c-1.2-0.77-1.96-1.51-1.96-2.97c0-1.42,0.92-2.42,2.8-2.4c1.73,0,2.54,0.73,2.8,1.99c0.08,0.39,0.07,0.76,0.07,1.09h-1.22
			c0-0.18,0.01-0.61-0.04-0.88c-0.15-0.77-0.59-1.12-1.65-1.12c-1.07,0-1.5,0.5-1.5,1.32c0,0.89,0.38,1.38,1.54,2.11
			c0.32,0.2,0.77,0.47,1.01,0.62c1.24,0.77,1.96,1.58,1.96,3.11C102.74,145.58,101.75,146.53,99.89,146.53z"/>
		<path class="st3" d="M106.41,146.53c-1.76,0-2.65-0.65-2.85-1.8c-0.09-0.53-0.08-0.97-0.08-1.31h1.19c0,0.23,0.04,0.77,0.08,1.07
			c0.11,0.72,0.76,0.99,1.7,0.99c1.04,0,1.57-0.47,1.57-1.54c0-1-0.38-1.57-1.51-2.28c-0.23-0.15-0.72-0.46-1.05-0.67
			c-1.2-0.77-1.96-1.51-1.96-2.97c0-1.42,0.92-2.42,2.8-2.4c1.73,0,2.54,0.73,2.8,1.99c0.08,0.39,0.07,0.76,0.07,1.09h-1.22
			c0-0.18,0.01-0.61-0.04-0.88c-0.15-0.77-0.59-1.12-1.65-1.12c-1.07,0-1.5,0.5-1.5,1.32c0,0.89,0.38,1.38,1.54,2.11
			c0.32,0.2,0.77,0.47,1.01,0.62c1.24,0.77,1.96,1.58,1.96,3.11C109.26,145.58,108.27,146.53,106.41,146.53z"/>
		<path class="st3" d="M118.11,140.51c-0.2,0.43-0.54,0.77-0.9,0.86l1.65,5.05h-1.22l-1.59-4.81h-1.86v4.81h-1.18v-10.74h3.23
			c1.05,0,1.61,0.46,1.89,1.19c0.16,0.38,0.26,0.97,0.26,1.8C118.38,139.51,118.27,140.13,118.11,140.51z M117.05,137.51
			c-0.12-0.43-0.45-0.72-1.01-0.72h-1.84c0,0,0,3.59,0,3.75c0,0,1.9-0.01,1.97-0.01c0.45-0.03,0.72-0.2,0.82-0.49
			c0.09-0.24,0.15-0.85,0.15-1.24C117.14,138.33,117.1,137.67,117.05,137.51z"/>
		<path class="st3" d="M119.81,146.42v-10.74h4.9v1.13H121v3.63h3.5v1.12H121v3.71h3.74v1.13H119.81z"/>
		<path class="st3" d="M130.5,146.42l-0.07-0.84c-0.27,0.46-0.88,0.95-2,0.95c-2.07,0-2.93-1.3-2.93-5.47
			c0-3.62,0.54-5.48,3.07-5.48c2.23,0,2.8,1.69,2.8,3.59h-1.17c0-1.35-0.28-2.44-1.62-2.44c-1.51,0-1.82,0.99-1.82,4.36
			c0,3.23,0.23,4.4,1.85,4.4c0.96,0,1.53-0.58,1.69-1.3v-2.49h-2.07v-1.09h3.19c0,0,0,2.51,0,3.17c0,1.27,0.01,2.62,0.01,2.63H130.5
			z"/>
		<path class="st3" d="M132.61,146.42v-10.74h1.23v10.74H132.61z"/>
		<path class="st3" d="M140.77,137.1c0.36,0.84,0.49,2.15,0.49,3.9c0,1.93-0.15,3.13-0.53,3.97c-0.47,1.05-1.24,1.55-2.59,1.55
			c-1.35,0-2.2-0.55-2.61-1.54c-0.31-0.76-0.51-1.88-0.51-3.96c0-1.77,0.15-3,0.51-3.92c0.35-0.88,1.22-1.53,2.61-1.53
			C139.5,135.59,140.35,136.14,140.77,137.1z M139.62,144.61c0.27-0.62,0.42-1.78,0.42-3.56c0-1.09-0.09-2.75-0.36-3.39
			c-0.22-0.51-0.73-0.93-1.54-0.93c-0.84,0-1.28,0.4-1.5,0.92c-0.27,0.65-0.38,2.31-0.38,3.43c0,1.23,0.07,2.74,0.38,3.5
			c0.28,0.69,0.95,0.9,1.5,0.9C138.83,145.48,139.37,145.17,139.62,144.61z"/>
		<path class="st3" d="M146.56,146.42l-3.01-8.21v8.21h-1.12v-10.74h1.39l2.96,8.13v-8.13h1.13v10.74H146.56z"/>
	</g>
	<g>
		<path class="st10" d="M39.77,156.35c-0.16,0.34-0.42,0.6-0.71,0.68l1.29,3.96H39.4l-1.25-3.76h-1.46v3.76h-0.92v-8.41h2.53
			c0.82,0,1.26,0.36,1.48,0.93c0.13,0.3,0.2,0.76,0.2,1.41C39.98,155.57,39.89,156.05,39.77,156.35z M38.93,154
			c-0.1-0.34-0.35-0.56-0.79-0.56H36.7c0,0,0,2.81,0,2.94c0,0,1.49-0.01,1.54-0.01c0.35-0.02,0.56-0.16,0.65-0.38
			c0.07-0.19,0.12-0.67,0.12-0.97C39,154.65,38.97,154.13,38.93,154z"/>
		<path class="st10" d="M41.1,160.98v-8.41h3.84v0.89h-2.91v2.84h2.74v0.88h-2.74v2.91h2.93v0.89H41.1z"/>
		<path class="st10" d="M50.13,159.71c-0.32,0.91-1.06,1.35-2.09,1.35c-0.95,0-1.54-0.29-1.97-1.03c-0.4-0.7-0.52-2.09-0.52-3.31
			c0-1.48,0.12-2.42,0.42-3.09c0.35-0.75,1.05-1.14,2.07-1.14c1.05,0,1.79,0.46,2.05,1.22c0.2,0.56,0.26,1.11,0.26,1.75h-0.95
			c0-0.42-0.08-1.13-0.24-1.47c-0.19-0.4-0.57-0.6-1.13-0.6c-0.59,0-0.97,0.18-1.18,0.63c-0.26,0.58-0.32,1.65-0.32,2.71
			c0,1.03,0.14,2.42,0.34,2.82c0.25,0.51,0.72,0.66,1.18,0.66c0.53,0,0.96-0.19,1.16-0.71c0.18-0.47,0.21-0.98,0.21-1.39h0.94
			C50.38,158.69,50.31,159.21,50.13,159.71z"/>
		<path class="st10" d="M55.44,153.68c0.29,0.66,0.38,1.68,0.38,3.06c0,1.51-0.12,2.45-0.41,3.11c-0.37,0.83-0.97,1.22-2.03,1.22
			c-1.06,0-1.72-0.43-2.04-1.21c-0.24-0.59-0.4-1.47-0.4-3.1c0-1.38,0.12-2.35,0.4-3.07c0.27-0.69,0.95-1.19,2.04-1.19
			C54.45,152.5,55.11,152.93,55.44,153.68z M54.54,159.56c0.21-0.49,0.33-1.4,0.33-2.79c0-0.86-0.07-2.16-0.29-2.65
			c-0.17-0.4-0.57-0.73-1.21-0.73c-0.66,0-1,0.32-1.17,0.72c-0.21,0.51-0.3,1.81-0.3,2.69c0,0.96,0.05,2.15,0.3,2.74
			c0.22,0.54,0.74,0.71,1.17,0.71C53.93,160.24,54.35,160,54.54,159.56z"/>
		<path class="st10" d="M60.38,160.98l-0.05-0.66c-0.21,0.36-0.69,0.74-1.56,0.74c-1.62,0-2.29-1.01-2.29-4.28
			c0-2.83,0.42-4.29,2.4-4.29c1.75,0,2.19,1.32,2.19,2.81h-0.92c0-1.06-0.22-1.91-1.27-1.91c-1.18,0-1.43,0.77-1.43,3.42
			c0,2.53,0.18,3.45,1.45,3.45c0.75,0,1.19-0.46,1.32-1.02v-1.95h-1.62v-0.86h2.5c0,0,0,1.97,0,2.48c0,0.99,0.01,2.05,0.01,2.06
			H60.38z"/>
		<path class="st10" d="M65.26,160.98l-2.36-6.43v6.43h-0.88v-8.41h1.09l2.32,6.37v-6.37h0.89v8.41H65.26z"/>
		<path class="st10" d="M67.5,160.98v-8.41h0.96v8.41H67.5z"/>
		<path class="st10" d="M69.24,160.98v-0.83l3.13-6.69H69.4v-0.89h4.03v0.75l-3.16,6.77h3.26v0.89H69.24z"/>
		<path class="st10" d="M74.24,160.98v-8.41h3.84v0.89h-2.91v2.84h2.74v0.88h-2.74v2.91h2.93v0.89H74.24z"/>
		<path class="st10" d="M81.26,160.98h-2.28v-8.41h2.22c0.93,0,1.6,0.36,1.88,0.93c0.32,0.62,0.36,1.26,0.36,3.12
			c0,2.15-0.05,2.87-0.4,3.46C82.73,160.61,82.2,160.98,81.26,160.98z M82.49,156.63c0-1.44,0.02-2.01-0.24-2.57
			c-0.19-0.41-0.65-0.59-1.16-0.59h-1.17v6.65h1.23c0.5,0,0.91-0.17,1.11-0.52C82.46,159.21,82.49,158.5,82.49,156.63z"/>
		<path class="st10" d="M86.39,160.98v-8.41h0.96v8.41H86.39z"/>
		<path class="st10" d="M91.78,160.98l-2.36-6.43v6.43h-0.88v-8.41h1.09l2.32,6.37v-6.37h0.89v8.41H91.78z"/>
		<path class="st10" d="M97.18,160.98v-7.17l-1.45,0.23v-0.77c1.16-0.18,1.53-0.39,1.7-0.72h0.68v8.43H97.18z"/>
		<path class="st10" d="M101.18,161.06c-1.27,0-1.99-0.56-2.05-1.58c-0.02-0.32-0.02-0.49-0.02-0.89h0.91c0,0.13,0,0.48,0.02,0.74
			c0.05,0.68,0.49,0.88,1.1,0.88c0.7,0,1.09-0.27,1.14-0.93c0.06-0.83,0.04-1.75,0-2.14c-0.06-0.6-0.45-0.88-1.07-0.88
			c-0.56,0-0.93,0.23-1.07,0.77h-0.9v-4.46h3.73v0.88h-2.89v2.61c0.2-0.42,0.74-0.67,1.36-0.67c1.05,0,1.66,0.54,1.79,1.49
			c0.05,0.57,0.07,1.91,0,2.58C103.14,160.45,102.39,161.06,101.18,161.06z"/>
		<path class="st10" d="M108.32,153.45v7.53h-0.96v-7.53h-1.76v-0.88h4.48v0.88H108.32z"/>
		<path class="st10" d="M113.17,158v2.98h-0.96v-2.96l-2.09-5.45h0.98c0,0,1.6,4.16,1.61,4.38c0-0.22,1.7-4.38,1.7-4.38h0.95
			L113.17,158z"/>
		<path class="st10" d="M119.88,157.02c-0.29,0.41-0.75,0.66-1.43,0.69c-0.18,0.01-1.54,0-1.54,0v3.28h-0.94v-8.41h2.53
			c0.73,0,1.1,0.24,1.38,0.68c0.23,0.36,0.38,0.94,0.38,1.9C120.25,156.11,120.14,156.65,119.88,157.02z M119.12,153.91
			c-0.19-0.33-0.41-0.44-0.82-0.44h-1.39v3.37c0,0,1.18,0,1.33,0c0.53,0,0.75-0.2,0.89-0.45c0.11-0.19,0.16-0.57,0.16-1.21
			C119.29,154.52,119.22,154.08,119.12,153.91z"/>
		<path class="st10" d="M121.13,160.98v-8.41h3.84v0.89h-2.91v2.84h2.74v0.88h-2.74v2.91h2.93v0.89H121.13z"/>
		<path class="st10" d="M127.85,161.07c-1.38,0-2.07-0.51-2.23-1.41c-0.07-0.41-0.06-0.76-0.06-1.03h0.93c0,0.18,0.03,0.6,0.06,0.84
			c0.08,0.56,0.59,0.77,1.33,0.77c0.81,0,1.23-0.37,1.23-1.21c0-0.78-0.3-1.23-1.18-1.79c-0.18-0.12-0.56-0.36-0.82-0.53
			c-0.94-0.6-1.53-1.18-1.53-2.33c0-1.11,0.72-1.89,2.19-1.88c1.35,0,1.99,0.57,2.19,1.55c0.06,0.31,0.05,0.59,0.05,0.86h-0.95
			c0-0.14,0.01-0.48-0.03-0.69c-0.12-0.6-0.47-0.88-1.29-0.88c-0.84,0-1.17,0.39-1.17,1.04c0,0.7,0.3,1.08,1.21,1.65
			c0.25,0.16,0.6,0.37,0.79,0.49c0.97,0.6,1.53,1.24,1.53,2.43C130.08,160.33,129.31,161.07,127.85,161.07z"/>
		<path class="st10" d="M137.25,153.68c0.29,0.66,0.38,1.68,0.38,3.06c0,1.51-0.12,2.45-0.41,3.11c-0.37,0.83-0.97,1.22-2.03,1.22
			s-1.72-0.43-2.04-1.21c-0.24-0.59-0.4-1.47-0.4-3.1c0-1.38,0.12-2.35,0.4-3.07c0.27-0.69,0.95-1.19,2.04-1.19
			C136.26,152.5,136.92,152.93,137.25,153.68z M136.35,159.56c0.21-0.49,0.33-1.4,0.33-2.79c0-0.86-0.07-2.16-0.29-2.65
			c-0.17-0.4-0.57-0.73-1.21-0.73c-0.66,0-1,0.32-1.17,0.72c-0.21,0.51-0.3,1.81-0.3,2.69c0,0.96,0.05,2.15,0.3,2.74
			c0.22,0.54,0.74,0.71,1.17,0.71C135.74,160.24,136.16,160,136.35,159.56z"/>
		<path class="st10" d="M139.49,153.46v2.83h2.72v0.89h-2.72v3.8h-0.94v-8.41h3.82v0.89H139.49z"/>
		<path class="st10" d="M149.5,159.71c-0.32,0.91-1.06,1.35-2.09,1.35c-0.95,0-1.54-0.29-1.97-1.03c-0.4-0.7-0.52-2.09-0.52-3.31
			c0-1.48,0.12-2.42,0.42-3.09c0.35-0.75,1.05-1.14,2.07-1.14c1.05,0,1.79,0.46,2.05,1.22c0.2,0.56,0.26,1.11,0.26,1.75h-0.95
			c0-0.42-0.08-1.13-0.24-1.47c-0.19-0.4-0.57-0.6-1.13-0.6c-0.59,0-0.97,0.18-1.18,0.63c-0.26,0.58-0.32,1.65-0.32,2.71
			c0,1.03,0.14,2.42,0.34,2.82c0.25,0.51,0.72,0.66,1.18,0.66c0.53,0,0.96-0.19,1.16-0.71c0.18-0.47,0.21-0.98,0.21-1.39h0.94
			C149.74,158.69,149.68,159.21,149.5,159.71z"/>
		<path class="st10" d="M150.94,160.98h-0.95l2.04-8.41h1.19l1.87,8.41h-0.97l-0.44-2.06h-2.28L150.94,160.98z M152.71,154.44
			c-0.02-0.11-0.12-0.82-0.12-0.82s-0.12,0.72-0.14,0.82c-0.03,0.15-0.87,3.64-0.87,3.64h1.91
			C153.5,158.07,152.73,154.55,152.71,154.44z"/>
		<path class="st10" d="M159.7,156.35c-0.16,0.34-0.42,0.6-0.71,0.68l1.29,3.96h-0.95l-1.25-3.76h-1.46v3.76h-0.92v-8.41h2.53
			c0.82,0,1.26,0.36,1.48,0.93c0.13,0.3,0.2,0.76,0.2,1.41C159.91,155.57,159.83,156.05,159.7,156.35z M158.86,154
			c-0.1-0.34-0.35-0.56-0.79-0.56h-1.44c0,0,0,2.81,0,2.94c0,0,1.49-0.01,1.54-0.01c0.35-0.02,0.56-0.16,0.65-0.38
			c0.07-0.19,0.12-0.67,0.12-0.97C158.94,154.65,158.91,154.13,158.86,154z"/>
		<path class="st10" d="M161.03,160.98v-8.41h3.84v0.89h-2.91v2.84h2.74v0.88h-2.74v2.91h2.93v0.89H161.03z"/>
	</g>
</g>
</svg>
